<?xml version="1.0" standalone="no"?><!DOCTYPE svg PUBLIC "-//W3C//DTD SVG 1.1//EN" "http://www.w3.org/Graphics/SVG/1.1/DTD/svg11.dtd"><svg t="1594222694999" class="icon" viewBox="0 0 1024 1024" version="1.1" xmlns="http://www.w3.org/2000/svg" p-id="5573" xmlns:xlink="http://www.w3.org/1999/xlink" width="200" height="200"><defs><style type="text/css"></style></defs><path d="M425.5 236.7c-26.3-6.7-46.7-23.1-58.9-47.4l-0.3-0.6c-8.5-18.8-10.7-35.2-7-51.6 5.5-24.3 24.2-42.2 48.9-46.9 10.6-2 21.6-1.5 32.8 1.5 22.2 5.9 42 21.3 54.1 42.3 11.8 20.5 14.8 43.5 8.2 63.2-5 15.1-15.7 27.4-30 34.7-5.4 2.7-11.2 4.7-17.3 5.8-9.8 1.9-20.2 1.6-30.5-1zM394 143.9c-2.2 9.7-0.8 19.3 4.9 31.8 7.9 15.6 19.7 25.1 35.9 29.3 16 4 30-3 34.8-17.5 3.8-11.3 1.8-25.1-5.5-37.8-7.5-13-19.8-22.9-32.7-26.3-5.8-1.5-11.1-1.8-16.2-0.9-10.9 2-18.6 9.8-21.2 21.4z" p-id="5574" fill="#1296db"></path><path d="M244.1 474.3c-4.8 36.6 0.7 74.7 16.2 113.1l0.1 0.2c2.7 6.4 5.6 12.6 8.6 19l4 8.8 0.4 0.7c23 41.6 53.3 79.2 92.5 115.2 62.4 57.2 124.2 105.1 188.9 146.4 29 18.6 57 32.7 85.4 43.2 37.5 14 75.9 17.5 114.1 10.3 17.7-3.3 35.8-9.1 53.6-17 43.4-19.4 71.4-51.2 83.3-94.3 8.3-30.6 6.4-62.5-5.7-95.1-9.9-26.6-25.9-45.2-40.2-59.9-12.2-12.6-29.4-24.9-51-36.5l-1.3-0.7c-5.2-2.7-10.6-5.5-16.4-8.3l-0.6-0.3c-16-8-32.5-16.4-43.1-26-21.9-19.9-30.9-41.8-28.3-68.9 0.5-5.5 3.9-14.6 6.8-22.7 3.5-9.2 7.4-19.6 9.1-29.8 6.1-35.2 4.5-68.2-4.8-98-9.5-30.4-26.8-56.9-51.4-78.8-22.7-20.2-44.9-34.5-68-43.7-23.7-9.4-48.4-13.5-75.4-12.5-41.9 1.5-82.9 13.8-121.9 36.5-47.6 27.8-83.5 58.4-109.9 93.8-25.3 33.3-40.3 68.7-45 105.3z m81.6-80.9c22.8-30.5 54.5-57.4 96.9-82.1 32.2-18.8 65.8-28.9 99.9-30.2 40.8-1.5 73.8 11.8 110.4 44.5 37.8 33.8 52.5 81.8 42.6 139.1v0.2c-1.1 6.4-4.3 14.9-7.1 22.3l-0.1 0.2c-4 10.9-8.1 22.1-9.1 32.7-3.8 39.9 10.4 74.7 42.1 103.5 15.2 13.8 34.6 23.5 53.3 32.9l1.3 0.6c5.2 2.5 10.3 5.1 15.2 7.7l1 0.5c17.4 9.3 30.8 18.8 39.8 28.1l0.1 0.1c11.8 12.1 23.7 25.9 30.8 45.1 9.1 24.5 10.6 48.2 4.6 70.5-8.5 30.8-27.8 52.7-59.1 66.7-14.5 6.5-28.9 11.1-43 13.7-29.5 5.5-59.3 2.8-88.6-8.1h-0.1c-25.3-9.3-50.3-22-76.5-38.7-62.5-39.9-122.2-86.2-182.7-141.6-35.4-32.5-62.7-66.4-83.5-103.6l-3.5-7.7c-2.8-5.9-5.4-11.6-7.8-17.2-25.8-63.8-17.9-124 23.1-179.2zM683.5 134.3c-1.3-28.6-13.9-55.2-34.4-73.1-20.6-17.8-47.3-25.3-73.2-20.4-20.6 3.9-39.3 15.4-52.6 32.3-19.1 24.4-26 52.6-20.3 83.8l0.1 0.3 0.1 0.3c5.1 23.2 14.7 40.9 30.3 55.7 20.6 19.5 48.1 27.8 75.5 22.6 18-3.4 34.2-12.3 47.1-25.7 18.7-19.6 28.7-47.3 27.4-75.8z m-53.9 53.4c-7.8 8.1-17.4 13.4-27.8 15.4-15.5 2.9-31.3-2-43.4-13.4-10.6-10-17-21.9-20.7-38.6-3.9-22.1 0.6-41.2 14-58.2 8.1-10.3 19.2-17.3 31.2-19.5 14.7-2.8 30.1 1.7 42.2 12.2 28.7 24.9 30.9 74.6 4.5 102.1zM382.1 245.4c4.6-17.8 0.6-38.1-11.1-55.6-11.9-17.9-30.1-30.6-49.9-34.8-8.7-1.9-17.3-2.1-25.7-0.5-23.2 4.4-39.8 21.5-43.2 44.8-2.4 14.7 0.5 29.1 9.1 45.4l0.4 0.7c12.5 21.1 30.8 34.2 54.4 38.9 8.1 1.6 16 1.6 23.5 0.2 20.5-3.9 37.2-18.4 42.5-39.1z m-34.4-8c-2.7 10.7-12.8 16.6-24.5 14.3-13.1-2.6-23-9.8-30.4-22.1-5.2-9.9-6.9-17.5-5.6-25.2v-0.3c0.8-5.4 3.8-14.8 15.3-16.9 3.4-0.6 7.1-0.6 10.8 0.3h0.2c10.5 2.2 20.8 9.6 27.6 19.9 6.5 9.9 8.9 20.8 6.6 30z" p-id="5575" fill="#1296db"></path><path d="M147.6 443.6l0.5 0.5c16.2 15.7 36.4 23.5 58.3 22.4 3-0.1 5.8-0.5 8.6-1 24.4-4.6 40.9-23.8 40.3-48.2v-0.2c-0.7-16.8-9.5-33.8-24.3-46.6-2.9-2.5-5.9-4.8-9-6.8 5.7 1.6 11.6 2.6 17.7 3 5.2 0.3 10.3 0 15.1-0.9 23.4-4.4 40.9-22.1 43.1-45.5 1.7-17.7-5.2-36.7-19-52.1-14.4-16-34.1-26-54.2-27.5h-0.2c-6.2-0.4-11.7-0.1-17 0.9-26 4.9-43.3 25.5-43.1 51.3 0.1 14.8 5.3 28.4 16.2 42.8l0.3 0.4c5.7 7 12.1 12.9 19.2 17.6-7.4-2.1-15-3.1-22.5-2.9-3.6 0.1-6.7 0.4-9.7 1-27.6 5.2-44.2 27.4-40.4 54 2 13.4 8.4 25.5 20.1 37.8z m61.7-127.4c-6.6-8.7-9.4-15.8-9.5-23.5-0.1-10 5.3-16.8 14.8-18.5 2.2-0.4 4.7-0.5 7.7-0.3 10.5 0.8 21.6 6.7 29.7 15.7 7.7 8.6 11.6 18.6 10.8 27.6-1 10.5-9.4 17-20.9 16.4-13.1-0.9-23.7-6.6-32.6-17.4z m-46.7 85.2c-1.3-9.1 3.2-15.3 12.4-17 1.1-0.2 2.4-0.3 4-0.4h0.2c9.3-0.4 19.7 3.7 27.9 10.9 7.7 6.7 12.5 15.4 12.9 23.2 0.2 9.2-5.4 14.8-15.4 15.2-11.7 0.6-21.8-3.4-30.9-12-6.8-7.3-10.1-13.2-11.1-19.9z" p-id="5576" fill="#1296db"></path></svg>